<svg xmlns="http://www.w3.org/2000/svg" version="1.1" xmlns:xlink="http://www.w3.org/1999/xlink" xmlns:svgjs="http://svgjs.com/svgjs" width="1440" height="560" preserveAspectRatio="none" viewBox="0 0 1440 560"><g mask="url(&quot;#SvgjsMask1008&quot;)" fill="none"><rect width="1440" height="560" x="0" y="0" fill="rgba(219, 230, 253, 1)"></rect><path d="M194.39 5.93L225.97 5.93L225.97 37.51L194.39 37.51z" fill="rgba(255, 171, 225, 1)"></path><path d="M20.87 92.96L30.58 92.96L30.58 139.84L20.87 139.84z" stroke="rgba(255, 171, 225, 1)"></path><path d="M247.66 204.48L248.14 204.48L248.14 204.96L247.66 204.96z" stroke="rgba(255, 171, 225, 1)"></path><path d="M472.87 8.3L514.06 8.3L514.06 49.49L472.87 49.49z" stroke="rgba(255, 171, 225, 1)"></path><path d="M1020.15 426.62 a47.12 47.12 0 1 0 94.24 0 a47.12 47.12 0 1 0 -94.24 0z" stroke="rgba(255, 171, 225, 1)"></path><path d="M421.51 513.18L434.67 513.18L434.67 520.47L421.51 520.47z" stroke="rgba(255, 171, 225, 1)"></path><path d="M1153.76 161.1a53.44 53.44 0 1 0 106.62-7.54z" stroke="rgba(255, 171, 225, 1)"></path><path d="M212.46 394.22 a12.41 12.41 0 1 0 24.82 0 a12.41 12.41 0 1 0 -24.82 0z" fill="rgba(255, 171, 225, 1)"></path><path d="M489.69 510.77a3.66 3.66 0 1 0 1.11-7.23z" fill="rgba(255, 171, 225, 1)"></path><path d="M210.53 404.64L227.98 404.64L227.98 442.24L210.53 442.24z" fill="rgba(255, 171, 225, 1)"></path><path d="M570.11 385.37 a37.58 37.58 0 1 0 75.16 0 a37.58 37.58 0 1 0 -75.16 0z" fill="rgba(255, 171, 225, 1)"></path><path d="M296.19 458.37L331.55 458.37L331.55 513.47L296.19 513.47z" stroke="rgba(255, 171, 225, 1)"></path><path d="M1061.84 381.01a13.66 13.66 0 1 0 27.28 1.46z" stroke="rgba(255, 171, 225, 1)"></path><path d="M115.89 497.22 a23.58 23.58 0 1 0 47.16 0 a23.58 23.58 0 1 0 -47.16 0z" fill="rgba(255, 171, 225, 1)"></path><path d="M1215.69 257.93 a33.22 33.22 0 1 0 66.44 0 a33.22 33.22 0 1 0 -66.44 0z" fill="rgba(255, 171, 225, 1)"></path><path d="M152.77 358.12 a28.22 28.22 0 1 0 56.44 0 a28.22 28.22 0 1 0 -56.44 0z" stroke="rgba(255, 171, 225, 1)"></path><path d="M145.88 391.11L182.21 391.11L182.21 428.92L145.88 428.92z" fill="rgba(255, 171, 225, 1)"></path><path d="M417.1 80.76L426.62 80.76L426.62 90.28L417.1 90.28z" stroke="rgba(255, 171, 225, 1)"></path><path d="M551 323.74L603.85 323.74L603.85 371.86L551 371.86z" stroke="rgba(255, 171, 225, 1)"></path><path d="M1027.27 137.46a39.75 39.75 0 1 0-57.92 54.46z" fill="rgba(255, 171, 225, 1)"></path><path d="M1421.29 556.03a6.72 6.72 0 1 0-8.71-10.24z" stroke="rgba(255, 171, 225, 1)"></path><path d="M1154.72 6.98L1202.01 6.98L1202.01 54.27L1154.72 54.27z" stroke="rgba(255, 171, 225, 1)"></path><path d="M1379.38 199.7a31.22 31.22 0 1 0-4.78-62.26z" stroke="rgba(255, 171, 225, 1)"></path><path d="M1061.88 229.51L1070.19 229.51L1070.19 237.82L1061.88 237.82z" fill="rgba(255, 171, 225, 1)"></path><path d="M137.54 499.78L175.06 499.78L175.06 550.3L137.54 550.3z" fill="rgba(255, 171, 225, 1)"></path><path d="M558.85 250.79a47.5 47.5 0 1 0 80.77-50.01z" stroke="rgba(255, 171, 225, 1)"></path><path d="M276.23 324.52L299.89 324.52L299.89 333.99L276.23 333.99z" stroke="rgba(255, 171, 225, 1)"></path><path d="M87.24 215.99L99.24 215.99L99.24 227.99L87.24 227.99z" stroke="rgba(255, 171, 225, 1)"></path><path d="M13.07 321.58 a41.39 41.39 0 1 0 82.78 0 a41.39 41.39 0 1 0 -82.78 0z" stroke="rgba(255, 171, 225, 1)"></path><path d="M765.24 312.34 a4.11 4.11 0 1 0 8.22 0 a4.11 4.11 0 1 0 -8.22 0z" fill="rgba(255, 171, 225, 1)"></path><path d="M573.14 153.01a21.03 21.03 0 1 0 38.42 17.11z" fill="rgba(255, 171, 225, 1)"></path><path d="M801.39 114.24 a11.97 11.97 0 1 0 23.94 0 a11.97 11.97 0 1 0 -23.94 0z" stroke="rgba(255, 171, 225, 1)"></path><path d="M1426.12 211.89L1469.85 211.89L1469.85 236.49L1426.12 236.49z" stroke="rgba(255, 171, 225, 1)"></path></g><defs><mask id="SvgjsMask1008"><rect width="1440" height="560" fill="#ffffff"></rect></mask></defs></svg>