<svg xmlns="http://www.w3.org/2000/svg" version="1.1" xmlns:xlink="http://www.w3.org/1999/xlink" xmlns:svgjs="http://svgjs.com/svgjs" width="1440" height="560" preserveAspectRatio="none" viewBox="0 0 1440 560"><g mask="url(&quot;#SvgjsMask1011&quot;)" fill="none"><rect width="1440" height="560" x="0" y="0" fill="rgba(255, 230, 247, 1)"></rect><path d="M703.56 369.62L721.44 369.62L721.44 387.5L703.56 387.5z" stroke="rgba(255, 171, 225, 1)"></path><path d="M236.65 462.35L250.12 462.35L250.12 475.82L236.65 475.82z" fill="rgba(255, 171, 225, 1)"></path><path d="M1042.74 202.05a1.93 1.93 0 1 0 2.78 2.68z" fill="rgba(255, 171, 225, 1)"></path><path d="M699.23 59.29a20.93 20.93 0 1 0 19.07 37.26z" stroke="rgba(198, 137, 198, 1)"></path><path d="M18.29 503.88L67.23 503.88L67.23 552.82L18.29 552.82z" stroke="rgba(198, 137, 198, 1)"></path><path d="M363.95 69.99L416.93 69.99L416.93 78.23L363.95 78.23z" stroke="rgba(147, 125, 194, 1)"></path><path d="M183.43 298.86 a0.56 0.56 0 1 0 1.12 0 a0.56 0.56 0 1 0 -1.12 0z" fill="rgba(255, 171, 225, 1)"></path><path d="M496.88 399.43L540.72 399.43L540.72 443.27L496.88 443.27z" fill="rgba(147, 125, 194, 1)"></path><path d="M1261.97 232.62L1282.62 232.62L1282.62 285.48L1261.97 285.48z" fill="rgba(198, 137, 198, 1)"></path><path d="M1171.69 270.48L1180.99 270.48L1180.99 279.78L1171.69 279.78z" fill="rgba(198, 137, 198, 1)"></path><path d="M997.37 469.19a52.64 52.64 0 1 0-73.95 74.94z" fill="rgba(255, 171, 225, 1)"></path><path d="M1382.16 252.26 a36.7 36.7 0 1 0 73.4 0 a36.7 36.7 0 1 0 -73.4 0z" stroke="rgba(198, 137, 198, 1)"></path><path d="M52.86 410.51L77.91 410.51L77.91 435.56L52.86 435.56z" fill="rgba(147, 125, 194, 1)"></path><path d="M181.77 299.43a4.97 4.97 0 1 0 2.33-9.67z" stroke="rgba(147, 125, 194, 1)"></path><path d="M543.04 381.29 a30.73 30.73 0 1 0 61.46 0 a30.73 30.73 0 1 0 -61.46 0z" fill="rgba(198, 137, 198, 1)"></path><path d="M154.68 324.34a11.6 11.6 0 1 0-11.97-19.87z" stroke="rgba(147, 125, 194, 1)"></path><path d="M1353.57 558.7L1385.59 558.7L1385.59 590.72L1353.57 590.72z" fill="rgba(198, 137, 198, 1)"></path><path d="M105.64 399.28a31.12 31.12 0 1 0 18.6 59.4z" fill="rgba(198, 137, 198, 1)"></path><path d="M675.69 25.79L700.72 25.79L700.72 30.1L675.69 30.1z" stroke="rgba(255, 171, 225, 1)"></path><path d="M1017.02 357.29 a45.08 45.08 0 1 0 90.16 0 a45.08 45.08 0 1 0 -90.16 0z" fill="rgba(198, 137, 198, 1)"></path><path d="M512.1 171.84L559.76 171.84L559.76 219.5L512.1 219.5z" stroke="rgba(147, 125, 194, 1)"></path><path d="M469.77 379.07L476.41 379.07L476.41 413.06L469.77 413.06z" stroke="rgba(147, 125, 194, 1)"></path><path d="M696.72 154.58a8.23 8.23 0 1 0 11.06 12.19z" stroke="rgba(255, 171, 225, 1)"></path><path d="M48.96 437.89L73.51 437.89L73.51 483.65L48.96 483.65z" stroke="rgba(255, 171, 225, 1)"></path><path d="M626.21 23.47 a14.25 14.25 0 1 0 28.5 0 a14.25 14.25 0 1 0 -28.5 0z" fill="rgba(255, 171, 225, 1)"></path><path d="M1171.81 150.68L1220.3 150.68L1220.3 199.17L1171.81 199.17z" fill="rgba(255, 171, 225, 1)"></path><path d="M1179.15 192.95 a30.91 30.91 0 1 0 61.82 0 a30.91 30.91 0 1 0 -61.82 0z" stroke="rgba(198, 137, 198, 1)"></path><path d="M270.47 233.56a40.51 40.51 0 1 0-7.1-80.71z" stroke="rgba(255, 171, 225, 1)"></path><path d="M141.42 139.15 a11.64 11.64 0 1 0 23.28 0 a11.64 11.64 0 1 0 -23.28 0z" fill="rgba(198, 137, 198, 1)"></path><path d="M1301.91 366.53L1335.44 366.53L1335.44 400.06L1301.91 400.06z" stroke="rgba(255, 171, 225, 1)"></path><path d="M1292.76 519.82L1348.66 519.82L1348.66 575.72L1292.76 575.72z" stroke="rgba(198, 137, 198, 1)"></path><path d="M1307.45 429.77a32.53 32.53 0 1 0 58.68-28.1z" fill="rgba(198, 137, 198, 1)"></path><path d="M596.63 223.87L597.09 223.87L597.09 233.57L596.63 233.57z" stroke="rgba(147, 125, 194, 1)"></path></g><defs><mask id="SvgjsMask1011"><rect width="1440" height="560" fill="#ffffff"></rect></mask></defs></svg>