<svg xmlns="http://www.w3.org/2000/svg" version="1.1" xmlns:xlink="http://www.w3.org/1999/xlink" xmlns:svgjs="http://svgjs.dev/svgjs" width="1000" height="229" viewBox="0 0 1000 229"><g transform="matrix(1,0,0,1,-30.539995966218044,-5.727491494928955)"><svg viewBox="0 0 409 94" data-background-color="#ffffff" preserveAspectRatio="xMidYMid meet" height="229" width="1000" xmlns="http://www.w3.org/2000/svg" xmlns:xlink="http://www.w3.org/1999/xlink"><g id="tight-bounds" transform="matrix(1,0,0,1,13.382533514408237,3.041187424496627)"><svg viewBox="0 0 395.52 81.5636548011478" height="81.5636548011478" width="395.52"><g><svg viewBox="0 0 545.6768068670763 112.52880943643511" height="81.5636548011478" width="395.52"><g><rect width="4.648044867354698" height="112.52880943643511" x="133.3411052788978" y="0" fill="#4790fc" opacity="1" stroke-width="0" stroke="transparent" fill-opacity="1" class="rect-s$-0" data-fill-palette-color="primary" rx="1%" id="s$-0" data-palette-color="#4790fc"></rect></g><g transform="matrix(1,0,0,1,150.1568068670763,0.2799224115334127)"><svg viewBox="0 0 395.52 111.96896461336829" height="111.96896461336829" width="395.52"><g id="textblocktransform"><svg viewBox="0 0 395.52 111.96896461336829" height="111.96896461336829" width="395.52" id="textblock"><g><svg viewBox="0 0 395.52 111.96896461336829" height="111.96896461336829" width="395.52"><g transform="matrix(1,0,0,1,0,0)"><svg width="395.52" viewBox="1.0500000000000003 -33.949999999999996 267.15000000000003 72.6" height="111.96896461336829" data-palette-color="#4790fc"><svg></svg><svg></svg><g class="undefined-text-0" data-fill-palette-color="primary" id="text-0"><path d="M18.25 0.85v0c-3.233 0-6.15-0.667-8.75-2-2.6-1.333-4.657-3.3-6.17-5.9-1.52-2.6-2.28-5.767-2.28-9.5v0c0-2.8 0.46-5.283 1.38-7.45 0.913-2.167 2.18-3.993 3.8-5.48 1.613-1.48 3.47-2.597 5.57-3.35 2.1-0.747 4.333-1.12 6.7-1.12v0c1.833 0 3.55 0.207 5.15 0.62 1.6 0.42 3.133 1.03 4.6 1.83v0l0.2 6.55h-1.35l-2.1-3.95c-0.333-0.667-0.69-1.267-1.07-1.8-0.387-0.533-0.88-0.917-1.48-1.15v0c-0.833-0.4-1.817-0.6-2.95-0.6v0c-1.967 0-3.757 0.5-5.37 1.5-1.62 1-2.913 2.657-3.88 4.97-0.967 2.32-1.45 5.48-1.45 9.48v0c0 3.967 0.46 7.117 1.38 9.45 0.913 2.333 2.153 3.99 3.72 4.97 1.567 0.987 3.333 1.48 5.3 1.48v0c0.9 0 1.633-0.067 2.2-0.2 0.567-0.133 1.133-0.317 1.7-0.55v0c0.667-0.267 1.183-0.66 1.55-1.18 0.367-0.513 0.683-1.103 0.95-1.77v0l1.9-4.55h1.35l-0.2 7.2c-1.433 0.8-3.017 1.417-4.75 1.85-1.733 0.433-3.617 0.65-5.65 0.65zM43.8 0h-12.5v-1.05l1-0.3c0.667-0.233 1.11-0.54 1.33-0.92 0.213-0.387 0.32-0.93 0.32-1.63v0-25.25c0-0.7-0.107-1.243-0.32-1.63-0.22-0.38-0.663-0.687-1.33-0.92v0l-1-0.3v-1.05h12.5v1.05l-1 0.3c-0.633 0.233-1.067 0.54-1.3 0.92-0.233 0.387-0.35 0.93-0.35 1.63v0 25.25c0 0.7 0.117 1.243 0.35 1.63 0.233 0.38 0.667 0.687 1.3 0.92v0l1 0.3zM68.3 0h-15.45v-1.05l2-0.4c1.4-0.3 2.1-1.117 2.1-2.45v0-13.65c0-2.333 0-4.667 0-7 0-2.333-0.017-4.667-0.05-7v0h-3.95c-1.067 0-1.85 0.283-2.35 0.85-0.5 0.567-1 1.367-1.5 2.4v0l-1.75 3.7h-1.4l0.25-8.45h28.7l0.25 8.45h-1.4l-1.75-3.7c-0.5-1.033-1-1.833-1.5-2.4-0.5-0.567-1.283-0.85-2.35-0.85v0h-4v27.65c0 1.367 0.7 2.183 2.1 2.45v0l2.05 0.4zM89.85 0h-12.55v-1.05l1.05-0.3c0.667-0.2 1.093-0.493 1.28-0.88 0.18-0.38 0.27-0.92 0.27-1.62v0c0.033-1.933 0.05-3.867 0.05-5.8 0-1.933 0-3.883 0-5.85v0-2.05c0-1.933 0-3.867 0-5.8 0-1.933-0.017-3.867-0.05-5.8v0c0-0.7-0.083-1.243-0.25-1.63-0.167-0.38-0.583-0.67-1.25-0.87v0l-1.1-0.35v-1.05h14c3.9 0 6.91 0.74 9.03 2.22 2.113 1.487 3.17 3.563 3.17 6.23v0c0 1.467-0.573 2.95-1.72 4.45-1.153 1.5-2.913 2.65-5.28 3.45v0l6.8 13.25c0.567 1.1 1.45 1.85 2.65 2.25v0l0.95 0.2v1h-8.85l-7.45-15.6h-3.6c0 2.367 0 4.5 0 6.4 0 1.9 0.017 3.683 0.05 5.35v0c0 0.667 0.11 1.2 0.33 1.6 0.213 0.4 0.637 0.683 1.27 0.85v0l1.2 0.35zM87-17.05v0h2.7c2.367 0 4.1-0.6 5.2-1.8 1.1-1.2 1.65-3.033 1.65-5.5v0c0-2.467-0.523-4.293-1.57-5.48-1.053-1.18-2.747-1.77-5.08-1.77v0h-2.85c0 1.3-0.007 2.623-0.02 3.97-0.02 1.353-0.03 2.87-0.03 4.55 0 1.687 0 3.697 0 6.03zM115.4 0h-7.65v-1.05l1.35-0.4c0.7-0.2 1.243-0.5 1.63-0.9 0.38-0.4 0.687-0.95 0.92-1.65v0l10.1-29.2h4.15l10.05 29.4c0.267 0.733 0.567 1.29 0.9 1.67 0.333 0.387 0.867 0.697 1.6 0.93v0l0.75 0.2v1h-12.7v-1l0.85-0.25c0.733-0.233 1.177-0.6 1.33-1.1 0.147-0.5 0.103-1.117-0.13-1.85v0l-2.1-6.45h-11.05l-2.15 6.35c-0.233 0.733-0.3 1.333-0.2 1.8 0.1 0.467 0.517 0.833 1.25 1.1v0l1.1 0.35zM121.1-27.15l-5.2 15.05h10.1z" fill="#4790fc" fill-rule="nonzero" stroke="none" stroke-width="1" stroke-linecap="butt" stroke-linejoin="miter" stroke-miterlimit="10" stroke-dasharray="" stroke-dashoffset="0" font-family="none" font-weight="none" font-size="none" text-anchor="none" style="mix-blend-mode: normal" data-fill-palette-color="primary" opacity="1"></path><path transform="translate(0,37.8)" d="M13.65 0h-12.5v-1.05l1-0.3c0.667-0.233 1.11-0.54 1.33-0.92 0.213-0.387 0.32-0.93 0.32-1.63v0-25.25c0-0.7-0.107-1.243-0.32-1.63-0.22-0.38-0.663-0.687-1.33-0.92v0l-1-0.3v-1.05h12.5v1.05l-1 0.3c-0.633 0.233-1.067 0.54-1.3 0.92-0.233 0.387-0.35 0.93-0.35 1.63v0 25.25c0 0.7 0.117 1.243 0.35 1.63 0.233 0.38 0.667 0.687 1.3 0.92v0l1 0.3zM24.25 0h-7.7v-1.05l1.45-0.4c0.633-0.167 1.077-0.483 1.33-0.95 0.247-0.467 0.37-1.033 0.37-1.7v0-24.2c-0.3-0.633-0.557-1.11-0.77-1.43-0.22-0.313-0.447-0.587-0.68-0.82-0.233-0.233-0.55-0.5-0.95-0.8v0l-0.9-0.65v-1.05h8.55l16.6 22.7v-18.55c0-0.667-0.107-1.25-0.32-1.75-0.22-0.5-0.663-0.833-1.33-1v0l-1.5-0.35v-1.05h7.45v1.05l-1.25 0.35c-0.633 0.2-1.027 0.54-1.18 1.02-0.147 0.487-0.22 1.063-0.22 1.73v0 29.1h-2.8l-19.05-26.2v21.85c0 0.7 0.1 1.283 0.3 1.75 0.2 0.467 0.617 0.783 1.25 0.95v0l1.35 0.4zM65.55 0.2h-3.55l-10.7-29.5c-0.433-1.233-1.283-2.033-2.55-2.4v0l-1.1-0.3v-1.05h13.85v1l-1.4 0.35c-0.767 0.2-1.19 0.55-1.27 1.05-0.087 0.5 0.003 1.133 0.27 1.9v0l7.2 21.35 7.25-21.35c0.267-0.767 0.393-1.4 0.38-1.9-0.02-0.5-0.413-0.85-1.18-1.05v0l-1.2-0.35v-1h7.45v1.05l-1.25 0.3c-0.7 0.167-1.19 0.45-1.47 0.85-0.287 0.4-0.547 0.95-0.78 1.65v0zM92.9 0h-12.5v-1.05l1-0.3c0.667-0.233 1.11-0.54 1.33-0.92 0.213-0.387 0.32-0.93 0.32-1.63v0-25.25c0-0.7-0.107-1.243-0.32-1.63-0.22-0.38-0.663-0.687-1.33-0.92v0l-1-0.3v-1.05h12.5v1.05l-1 0.3c-0.633 0.233-1.067 0.54-1.3 0.92-0.233 0.387-0.35 0.93-0.35 1.63v0 25.25c0 0.7 0.117 1.243 0.35 1.63 0.233 0.38 0.667 0.687 1.3 0.92v0l1 0.3zM117.4 0h-15.45v-1.05l2-0.4c1.4-0.3 2.1-1.117 2.1-2.45v0-13.65c0-2.333 0-4.667 0-7 0-2.333-0.017-4.667-0.05-7v0h-3.95c-1.067 0-1.85 0.283-2.35 0.85-0.5 0.567-1 1.367-1.5 2.4v0l-1.75 3.7h-1.4l0.25-8.45h28.7l0.25 8.45h-1.4l-1.75-3.7c-0.5-1.033-1-1.833-1.5-2.4-0.5-0.567-1.283-0.85-2.35-0.85v0h-4v27.65c0 1.367 0.7 2.183 2.1 2.45v0l2.05 0.4zM133.25 0h-7.65v-1.05l1.35-0.4c0.7-0.2 1.243-0.5 1.63-0.9 0.38-0.4 0.687-0.95 0.92-1.65v0l10.1-29.2h4.15l10.05 29.4c0.267 0.733 0.567 1.29 0.9 1.67 0.333 0.387 0.867 0.697 1.6 0.93v0l0.75 0.2v1h-12.7v-1l0.85-0.25c0.733-0.233 1.177-0.6 1.33-1.1 0.147-0.5 0.103-1.117-0.13-1.85v0l-2.1-6.45h-11.05l-2.15 6.35c-0.233 0.733-0.3 1.333-0.2 1.8 0.1 0.467 0.517 0.833 1.25 1.1v0l1.1 0.35zM138.95-27.15l-5.2 15.05h10.1zM181.05 0h-15.45v-1.05l2-0.4c1.4-0.3 2.1-1.117 2.1-2.45v0-13.65c0-2.333 0-4.667 0-7 0-2.333-0.017-4.667-0.05-7v0h-3.95c-1.067 0-1.85 0.283-2.35 0.85-0.5 0.567-1 1.367-1.5 2.4v0l-1.75 3.7h-1.4l0.25-8.45h28.7l0.25 8.45h-1.4l-1.75-3.7c-0.5-1.033-1-1.833-1.5-2.4-0.5-0.567-1.283-0.85-2.35-0.85v0h-4v27.65c0 1.367 0.7 2.183 2.1 2.45v0l2.05 0.4zM202.55 0h-12.5v-1.05l1-0.3c0.667-0.233 1.11-0.54 1.33-0.92 0.213-0.387 0.32-0.93 0.32-1.63v0-25.25c0-0.7-0.107-1.243-0.32-1.63-0.22-0.38-0.663-0.687-1.33-0.92v0l-1-0.3v-1.05h12.5v1.05l-1 0.3c-0.633 0.233-1.067 0.54-1.3 0.92-0.233 0.387-0.35 0.93-0.35 1.63v0 25.25c0 0.7 0.117 1.243 0.35 1.63 0.233 0.38 0.667 0.687 1.3 0.92v0l1 0.3zM220.45 0.85v0c-2.033 0-3.983-0.367-5.85-1.1-1.867-0.733-3.54-1.827-5.02-3.28-1.487-1.447-2.663-3.253-3.53-5.42-0.867-2.167-1.3-4.7-1.3-7.6v0c0-2.833 0.433-5.333 1.3-7.5 0.867-2.167 2.043-3.983 3.53-5.45 1.48-1.467 3.163-2.577 5.05-3.33 1.88-0.747 3.82-1.12 5.82-1.12v0c2 0 3.943 0.367 5.83 1.1 1.88 0.733 3.553 1.823 5.02 3.27 1.467 1.453 2.633 3.263 3.5 5.43 0.867 2.167 1.3 4.7 1.3 7.6v0c0 2.833-0.433 5.333-1.3 7.5-0.867 2.167-2.033 3.983-3.5 5.45-1.467 1.467-3.133 2.573-5 3.32-1.867 0.753-3.817 1.13-5.85 1.13zM220.45-0.65v0c1.9 0 3.433-0.493 4.6-1.48 1.167-0.98 2.017-2.637 2.55-4.97 0.533-2.333 0.8-5.483 0.8-9.45v0c0-3.967-0.267-7.11-0.8-9.43-0.533-2.313-1.383-3.963-2.55-4.95-1.167-0.98-2.7-1.47-4.6-1.47v0c-1.867 0-3.39 0.49-4.57 1.47-1.187 0.987-2.047 2.637-2.58 4.95-0.533 2.32-0.8 5.463-0.8 9.43v0c0 3.967 0.267 7.117 0.8 9.45 0.533 2.333 1.393 3.99 2.58 4.97 1.18 0.987 2.703 1.48 4.57 1.48zM246.6 0h-7.7v-1.05l1.45-0.4c0.633-0.167 1.077-0.483 1.33-0.95 0.247-0.467 0.37-1.033 0.37-1.7v0-24.2c-0.3-0.633-0.557-1.11-0.77-1.43-0.22-0.313-0.447-0.587-0.68-0.82-0.233-0.233-0.55-0.5-0.95-0.8v0l-0.9-0.65v-1.05h8.55l16.6 22.7v-18.55c0-0.667-0.107-1.25-0.32-1.75-0.22-0.5-0.663-0.833-1.33-1v0l-1.5-0.35v-1.05h7.45v1.05l-1.25 0.35c-0.633 0.2-1.023 0.54-1.17 1.02-0.153 0.487-0.23 1.063-0.23 1.73v0 29.1h-2.8l-19.05-26.2v21.85c0 0.7 0.1 1.283 0.3 1.75 0.2 0.467 0.617 0.783 1.25 0.95v0l1.35 0.4z" fill="#4790fc" fill-rule="nonzero" stroke="none" stroke-width="1" stroke-linecap="butt" stroke-linejoin="miter" stroke-miterlimit="10" stroke-dasharray="" stroke-dashoffset="0" font-family="none" font-weight="none" font-size="none" text-anchor="none" style="mix-blend-mode: normal" data-fill-palette-color="primary" opacity="1"></path></g></svg></g></svg></g></svg></g></svg></g><g transform="matrix(1,0,0,1,0,0.2799224115334127)"><svg viewBox="0 0 121.17344855807399 111.96896461336829" height="111.96896461336829" width="121.17344855807399"><g><svg xmlns="http://www.w3.org/2000/svg" viewBox="0.869711972660224 2.0708496426821896 30.111481987867435 27.8241768413461" x="0" y="0" height="111.96896461336829" width="121.17344855807399" class="icon-icon-0" data-fill-palette-color="accent" id="icon-0"><g data-name="Layer 12" fill="#ecaacd" data-fill-palette-color="accent"><path d="M14.63 20.71a4.58 4.58 0 0 0 0 0.64A9.07 9.07 0 0 0 16 20.46a8.93 8.93 0 0 0 3.28-5.39 5.58 5.58 0 0 0-2.87 1.52A5.8 5.8 0 0 0 14.63 20.71Z" fill="#ecaacd" data-fill-palette-color="accent"></path><path d="M11 19.69A6.38 6.38 0 1 1 15.42 9.4a6.54 6.54 0 0 1 1.24 2.66 9.82 9.82 0 0 1 2.58-0.72 8.92 8.92 0 0 0-1.71-3.6 9.06 9.06 0 1 0-6.46 14.63A10 10 0 0 1 11 19.69Z" fill="#ecaacd" data-fill-palette-color="accent"></path><path d="M1.61 5.82l1.93 0.23A1 1 0 0 0 5 4.94L5.18 3A1 1 0 0 0 3.5 2.34L1.35 4A1 1 0 0 0 1.61 5.82Z" fill="#ecaacd" data-fill-palette-color="accent"></path><path d="M19.34 11.85a8.3 8.3 0 0 0-2.6 0.74 8.92 8.92 0 0 0-2.52 1.71 9 9 0 0 0-2.7 5.32 8.74 8.74 0 0 0 0 2.7A8.94 8.94 0 0 0 14 27.11a9.06 9.06 0 1 0 5.37-15.26ZM15.91 25.24a6.39 6.39 0 0 1 0.17-9h0a6.26 6.26 0 0 1 3.28-1.67 6.37 6.37 0 1 1-3.47 10.69Z" fill="#ecaacd" data-fill-palette-color="accent"></path><path d="M30.76 12.85l-1.91-2a1 1 0 0 0-1.75 0.43l0 1.94a1 1 0 0 0 0 0.63 0 0 0 0 0 0 0l0.3 0.3 0.3 0.32a1.08 1.08 0 0 0 0.62 0l2 0A1.05 1.05 0 0 0 30.76 12.85Z" fill="#ecaacd" data-fill-palette-color="accent"></path></g></svg></g></svg></g></svg></g><defs></defs></svg><rect width="395.52" height="81.5636548011478" fill="none" stroke="none" visibility="hidden"></rect></g></svg></g></svg>